<svg xmlns="http://www.w3.org/2000/svg" width="512" height="512" viewBox="0 0 512 512">
  <defs>
    <linearGradient id="bg" x1="0" y1="0" x2="1" y2="1"><stop offset="0%" stop-color="#0A1628"/><stop offset="100%" stop-color="#0F1F3A"/></linearGradient>
    <linearGradient id="hexOuter" x1="0" y1="0" x2="1" y2="1"><stop offset="0%" stop-color="#FF6B35"/><stop offset="100%" stop-color="#FF8F5E"/></linearGradient>
    <linearGradient id="hexMid" x1="0" y1="0" x2="1" y2="1"><stop offset="0%" stop-color="#22C55E"/><stop offset="100%" stop-color="#06D6A0"/></linearGradient>
    <linearGradient id="hexInner" x1="0" y1="0" x2="1" y2="1"><stop offset="0%" stop-color="#0077B6"/><stop offset="100%" stop-color="#48CAE4"/></linearGradient>
    <linearGradient id="gearGrad" x1="0" y1="0" x2="1" y2="1"><stop offset="0%" stop-color="#B8860B"/><stop offset="100%" stop-color="#DAA520"/></linearGradient>
  </defs>
  <rect width="512" height="512" rx="102" fill="url(#bg)"/>
  <!-- Particles blue -->
  <circle cx="60" cy="370" r="11" fill="#48CAE4" opacity="0.6"/>
  <circle cx="90" cy="340" r="7" fill="#48CAE4" opacity="0.5"/>
  <circle cx="45" cy="400" r="9" fill="#0077B6" opacity="0.4"/>
  <circle cx="110" cy="390" r="5" fill="#48CAE4" opacity="0.7"/>
  <circle cx="75" cy="430" r="6" fill="#0077B6" opacity="0.3"/>
  <circle cx="130" cy="360" r="4" fill="#48CAE4" opacity="0.5"/>
  <circle cx="100" cy="415" r="8" fill="#0077B6" opacity="0.35"/>
  <circle cx="35" cy="385" r="5" fill="#48CAE4" opacity="0.45"/>
  <!-- Particles orange -->
  <circle cx="415" cy="130" r="11" fill="#FF6B35" opacity="0.6"/>
  <circle cx="440" cy="95" r="7" fill="#FF8F5E" opacity="0.5"/>
  <circle cx="395" cy="110" r="9" fill="#FF6B35" opacity="0.4"/>
  <circle cx="455" cy="145" r="5" fill="#FF8F5E" opacity="0.7"/>
  <circle cx="425" cy="170" r="6" fill="#FF6B35" opacity="0.3"/>
  <circle cx="460" cy="115" r="4" fill="#FF8F5E" opacity="0.5"/>
  <circle cx="445" cy="80" r="5" fill="#FF8F5E" opacity="0.4"/>
  <!-- Outer hexagon (orange) -->
  <polygon points="256,70 420,115 420,265 256,310 92,265 92,115" fill="none" stroke="url(#hexOuter)" stroke-width="14" stroke-linejoin="round"/>
  <!-- Mid hexagon (green) -->
  <polygon points="256,88 404,128 404,252 256,292 108,252 108,128" fill="none" stroke="url(#hexMid)" stroke-width="10" stroke-linejoin="round"/>
  <!-- Inner hexagon (blue) -->
  <polygon points="256,104 390,140 390,240 256,276 122,240 122,140" fill="url(#hexInner)" fill-opacity="0.15" stroke="url(#hexInner)" stroke-width="7" stroke-linejoin="round"/>
  <!-- Dark fill inside -->
  <polygon points="256,114 380,146 380,234 256,266 132,234 132,146" fill="#0A1628" fill-opacity="0.9"/>
  <!-- 3 User silhouettes -->
  <circle cx="256" cy="155" r="18" fill="white"/>
  <circle cx="206" cy="166" r="14" fill="white" opacity="0.9"/>
  <circle cx="306" cy="166" r="14" fill="white" opacity="0.9"/>
  <path d="M256,177 C237,177 224,192 224,205 L288,205 C288,192 275,177 256,177Z" fill="white"/>
  <path d="M206,183 C192,183 183,194 183,204 L229,204 C229,194 220,183 206,183Z" fill="white" opacity="0.85"/>
  <path d="M306,183 C292,183 283,194 283,204 L329,204 C329,194 320,183 306,183Z" fill="white" opacity="0.85"/>
  <!-- Gear icon (golden) -->
  <g transform="translate(348,240)">
    <circle cx="0" cy="0" r="22" fill="url(#gearGrad)"/>
    <circle cx="0" cy="0" r="8" fill="white"/>
    <rect x="-4" y="-28" width="8" height="12" rx="2" fill="url(#gearGrad)"/>
    <rect x="-4" y="16" width="8" height="12" rx="2" fill="url(#gearGrad)"/>
    <rect x="-28" y="-4" width="12" height="8" rx="2" fill="url(#gearGrad)"/>
    <rect x="16" y="-4" width="12" height="8" rx="2" fill="url(#gearGrad)"/>
    <rect x="12" y="-22" width="8" height="12" rx="2" fill="url(#gearGrad)" transform="rotate(45,16,-16)"/>
    <rect x="-20" y="10" width="8" height="12" rx="2" fill="url(#gearGrad)" transform="rotate(45,-16,16)"/>
    <rect x="-20" y="-22" width="8" height="12" rx="2" fill="url(#gearGrad)" transform="rotate(-45,-16,-16)"/>
    <rect x="12" y="10" width="8" height="12" rx="2" fill="url(#gearGrad)" transform="rotate(-45,16,16)"/>
  </g>
  <!-- "Admin" text -->
  <text x="256" y="365" text-anchor="middle" font-family="system-ui,-apple-system,sans-serif" font-size="52" font-weight="700" fill="white" letter-spacing="2">Admin</text>
</svg>